<?xml version="1.0" encoding="utf-8"?>
<!-- Generator: Adobe Illustrator 13.0.0, SVG Export Plug-In . SVG Version: 6.00 Build 14576)  -->
<!DOCTYPE svg PUBLIC "-//W3C//DTD SVG 1.0//EN" "http://www.w3.org/TR/2001/REC-SVG-20010904/DTD/svg10.dtd">
<svg version="1.0" id="Layer_1" xmlns="http://www.w3.org/2000/svg" xmlns:xlink="http://www.w3.org/1999/xlink" x="0px" y="0px"
	 width="800px" height="600px" viewBox="0 0 800 600" enable-background="new 0 0 800 600" xml:space="preserve">
<rect x="80.419" y="368.101" fill="#662D91" stroke="#000000" width="639.383" height="148.899"/>
<rect x="316.897" y="275.391" fill="#B3B3B3" stroke="#000000" width="160.682" height="42.137"/>
<text transform="matrix(1 0 0 1 356.2202 292)"><tspan x="0" y="0" font-family="'ArialMT'" font-size="18">Word Line</tspan><tspan x="-10.006" y="21.6" font-family="'ArialMT'" font-size="18">Control Gate</tspan></text>
<path fill="#00FFFF" stroke="#000000" d="M352,368.587v59.561c0,0,0,19.853-19.693,19.853c-19.694,0-118.164,0-118.164,0
	s-19.693,0-19.693-19.853c0-19.854,0-59.561,0-59.561"/>
<rect x="217.843" y="88" fill="#F7931E" stroke="#000000" width="78.26" height="279.339"/>
<text transform="matrix(1 0 0 1 227.9819 264.25)"><tspan x="0" y="0" font-family="'ArialMT'" font-size="18">Source</tspan><tspan x="11.5" y="21.6" font-family="'ArialMT'" font-size="18">Line</tspan></text>
<text transform="matrix(1 0 0 1 250.4746 407)" font-family="'ArialMT'" font-size="18">N</text>
<path fill="#00FFFF" stroke="#000000" d="M600,368.587v59.561c0,0,0,19.853-19.693,19.853c-19.695,0-118.165,0-118.165,0
	s-19.693,0-19.693-19.853c0-19.854,0-59.561,0-59.561"/>
<rect x="498" y="87.725" fill="#F7931E" stroke="#000000" width="78.261" height="279.614"/>
<text transform="matrix(1 0 0 1 531.0039 407)" font-family="'ArialMT'" font-size="18">N</text>
<rect x="317.318" y="322" fill="#B3B3B3" stroke="#000000" width="160.682" height="42.137"/>
<text transform="matrix(1 0 0 1 355.9795 348)" font-family="'ArialMT'" font-size="18">Float Gate</text>
<text transform="matrix(1 0 0 1 508.4922 264.25)" font-family="'ArialMT'" font-size="18">Bit Line</text>
<text transform="matrix(1 0 0 1 394 407)" font-family="'ArialMT'" font-size="18">P</text>
</svg>
